<?xml version="1.0" encoding="UTF-8" standalone="no"?>
<svg width="320px" height="27px" viewBox="0 0 320 27" version="1.1" xmlns="http://www.w3.org/2000/svg" xmlns:xlink="http://www.w3.org/1999/xlink">
    <!-- Generator: Sketch 41.2 (35397) - http://www.bohemiancoding.com/sketch -->
    <title>Page 1</title>
    <desc>Created with Sketch.</desc>
    <defs>
        <polygon id="path-1" points="0 0.00581818182 0 22.5897875 28.0966965 22.5897875 28.0966965 0.00581818182 0 0.00581818182"></polygon>
        <polygon id="path-3" points="0 25.8130602 319.869296 25.8130602 319.869296 0.118002561 0 0.118002561"></polygon>
    </defs>
    <g id="Symbols" stroke="none" stroke-width="1" fill="none" fill-rule="evenodd">
        <g id="Header" transform="translate(-120.000000, -36.000000)">
            <g id="Group-5" transform="translate(120.000000, 0.000000)">
                <g id="Page-1" transform="translate(0.000000, 36.000000)">
                    <g id="Group-38" transform="translate(0.000000, 0.291810)">
                        <g id="Group-3" transform="translate(0.000000, 1.638924)">
                            <mask id="mask-2" fill="white">
                                <use xlink:href="#path-1"></use>
                            </mask>
                            <g id="Clip-2"></g>
                            <path d="M23.379872,7.99516517 C20.9915493,5.63757234 17.895621,4.1318105 14.0629962,4.1318105 C8.7577977,4.1318105 5.16035851,7.13964661 5.16035851,11.2660487 C5.16035851,15.4830013 8.81597951,18.4605173 14.477644,18.4605173 C18.0734443,18.4605173 20.932548,17.1952676 23.439283,14.4803892 L27.83242,16.8416697 C24.2943918,20.8795698 20.2835339,22.5897875 14.7132394,22.5897875 C10.937977,22.5897875 7.75518566,21.7342689 4.68957746,19.8495058 C1.82924456,18.0761895 -0.000204865557,14.866356 -0.000204865557,11.2660487 C-0.000204865557,8.20166965 1.26873239,5.52038924 3.68573624,3.51721383 C6.36988476,1.30343662 10.2012804,0.00581818182 14.477644,0.00581818182 C20.2261716,0.00581818182 24.6467606,2.04013316 28.0966965,6.31444814 L23.379872,7.99516517 Z" id="Fill-1" fill="#F89C36" mask="url(#mask-2)"></path>
                        </g>
                        <polygon id="Fill-4" fill="#F89C36" points="33.4062791 23.6351754 33.4062791 2.29187196 38.5942945 2.29187196 38.5942945 19.5403227 55.0146786 19.5403227 55.0146786 23.6351754"></polygon>
                        <path d="M71.8822023,6.18599744 L67.1936492,14.9435903 L76.569936,14.9435903 L71.8822023,6.18599744 Z M81.1986684,23.6352164 L78.7501152,19.0388528 L65.0716517,19.0388528 L62.6239181,23.6352164 L57.3785403,23.6352164 L68.7264533,2.29191293 L75.1252241,2.29191293 L86.445685,23.6352164 L81.1986684,23.6352164 Z" id="Fill-6" fill="#F89C36"></path>
                        <mask id="mask-4" fill="white">
                            <use xlink:href="#path-3"></use>
                        </mask>
                        <g id="Clip-9"></g>
                        <polygon id="Fill-8" fill="#F89C36" mask="url(#mask-4)" points="89.6303201 23.6353393 94.8195647 23.6353393 94.8195647 2.29203585 89.6303201 2.29203585"></polygon>
                        <polygon id="Fill-10" fill="#F89C36" mask="url(#mask-4)" points="127.367375 23.6351754 127.367375 8.48249936 127.279693 8.48249936 117.106889 20.7191191 106.938182 8.48249936 106.848041 8.48249936 106.848041 23.6351754 101.660435 23.6351754 101.660435 2.29187196 107.734289 2.29187196 117.106889 13.6119232 126.481946 2.29187196 132.554161 2.29187196 132.554161 23.6351754"></polygon>
                        <path d="M150.895898,5.92012292 C146.444988,5.92012292 144.144758,6.77482202 144.144758,8.15848399 C144.144758,8.89763892 144.763452,9.39874008 146.00125,9.69210755 C148.037204,10.1944379 150.777895,10.0489834 154.079918,10.3419411 C160.774105,10.9614545 163.984758,12.5811216 163.984758,16.7677542 C163.984758,21.3968963 159.621941,24.1388169 151.51623,24.1388169 C146.179073,24.1388169 141.756845,22.9596108 137.659534,20.1300077 L140.489956,16.6505711 C144.144758,18.8938489 147.771288,19.9546428 151.751416,19.9546428 C156.05728,19.9546428 158.473465,18.7160256 158.473465,16.9742586 C158.473465,15.0882663 155.700814,15.0882663 151.161813,14.882991 C142.847549,14.5285736 138.750648,12.8789962 138.750648,8.60427145 C138.750648,4.41722919 142.936871,1.76340077 150.660712,1.76340077 C155.879457,1.76340077 160.095181,2.82378489 163.220609,4.88760051 L160.270136,8.30803585 C157.262709,6.68713956 154.227012,5.92012292 150.895898,5.92012292" id="Fill-11" fill="#F89C36" mask="url(#mask-4)"></path>
                        <path d="M192.006269,8.56116773 C192.006269,5.57217926 190.293183,4.12377977 186.830955,4.12377977 L173.463887,4.12377977 L173.463887,13.0268271 L187.5402,13.0268271 C190.379227,13.0268271 192.006269,11.3989654 192.006269,8.56116773 M194.135641,8.64721127 C194.135641,12.4646761 191.503529,14.8890551 187.187421,14.8890551 L173.463887,14.8890551 L173.463887,23.6691831 L171.540609,23.6691831 L171.540609,2.25827401 L187.688932,2.25827401 C191.651442,2.25827401 194.135641,4.71338284 194.135641,8.64721127" id="Fill-12" fill="#6D6F73" mask="url(#mask-4)"></path>
                        <path d="M249.804743,8.56116773 C249.804743,5.57217926 248.08756,4.12377977 244.628609,4.12377977 L231.261132,4.12377977 L231.261132,13.0268271 L245.336215,13.0268271 C248.175242,13.0268271 249.804743,11.3989654 249.804743,8.56116773 L249.804743,8.56116773 Z M249.654371,23.6691831 L242.941746,14.8890551 L231.261132,14.8890551 L231.261132,23.6691831 L229.336625,23.6691831 L229.336625,2.25827401 L245.487406,2.25827401 C249.450325,2.25827401 251.933706,4.74370294 251.933706,8.64721127 C251.933706,12.3155339 249.62569,14.5932292 245.487406,14.8890551 L251.990658,23.6691831 L249.654371,23.6691831 Z" id="Fill-13" fill="#6D6F73" mask="url(#mask-4)"></path>
                        <polygon id="Fill-14" fill="#6D6F73" mask="url(#mask-4)" points="265.360512 4.1237388 265.360512 23.6691421 263.440102 23.6691421 263.440102 4.1237388 253.206658 4.1237388 253.206658 2.25823303 275.594776 2.25823303 275.594776 4.1237388"></polygon>
                        <path d="M285.2337,4.1237388 L284.968195,4.1237388 L278.519846,16.2460435 L291.653367,16.2460435 L285.2337,4.1237388 Z M295.556466,23.6691421 L292.627298,18.1140077 L277.544277,18.1140077 L274.558566,23.6691421 L272.340282,23.6691421 L283.668118,2.25823303 L286.505096,2.25823303 L297.77516,23.6691421 L295.556466,23.6691421 Z" id="Fill-15" fill="#6D6F73" mask="url(#mask-4)"></path>
                        <polygon id="Fill-16" fill="#6D6F73" mask="url(#mask-4)" points="301.414843 23.6691831 301.414843 2.25827401 303.336072 2.25827401 303.336072 21.8098233 319.869132 21.8098233 319.869132 23.6691831"></polygon>
                        <path id="Fill-17" fill="#B9BABF" mask="url(#mask-4)"></path>
                        <path d="M209.373787,4.78074264 C209.642981,4.62176697 209.909306,4.4746735 210.168256,4.3324968 C212.253787,3.19836108 215.100599,3.11067862 217.79663,4.37387964 C220.103416,5.45884763 222.115196,7.49930858 223.292353,9.74299616 C223.258755,9.85362356 223.224748,9.96138284 223.188282,10.0728297 C221.983672,7.74555698 219.887078,5.63953905 217.456553,4.56153649 C214.608512,3.30243278 211.590433,3.48804097 209.373787,4.78074264" id="Fill-18" fill="#B9BABF" mask="url(#mask-4)"></path>
                        <path d="M212.152707,1.87681434 C212.339954,1.82109091 212.522694,1.76618694 212.700517,1.71783867 C211.495908,2.05340845 210.539186,2.94867093 210.070863,4.38682714 C209.807816,4.5310525 209.539032,4.67978489 209.269839,4.84162868 C209.817649,3.27563636 210.866151,2.27917029 212.152707,1.87681434" id="Fill-19" fill="#B9BABF" mask="url(#mask-4)"></path>
                        <path d="M217.24714,16.6749501 C216.992287,16.9634008 216.731698,17.2493931 216.464143,17.5431703 C218.337844,15.509265 219.229009,12.9656543 219.101583,10.5244763 C219.254003,10.3450141 219.396999,10.1700589 219.535898,10.0020691 C219.727652,12.3121332 218.962684,14.7270883 217.24714,16.6749501" id="Fill-20" fill="#B9BABF" mask="url(#mask-4)"></path>
                        <path d="M220.48377,22.3899616 C220.279314,22.653009 220.069941,22.9095006 219.853193,23.1647631 C221.586356,20.5748528 222.348456,16.9438156 221.509736,13.3967734 C220.659544,9.84399488 218.290479,6.79231754 215.45514,5.10422535 C215.625588,5.0034315 215.794397,4.90591549 215.958289,4.81454545 C218.667841,6.47231754 220.957828,9.40189501 221.837931,12.8149552 C222.718443,16.2571063 222.078853,19.8172599 220.48377,22.3899616" id="Fill-21" fill="#B9BABF" mask="url(#mask-4)"></path>
                        <path d="M222.903355,19.5438873 C222.779206,19.7757951 222.643585,20.0081127 222.507145,20.2449373 C221.867145,21.345475 220.968195,22.3562817 219.853316,23.1646812 C220.066786,22.9094187 220.272061,22.652927 220.471601,22.3931575 C221.504942,21.6019667 222.324405,20.6116466 222.903355,19.5438873" id="Fill-22" fill="#B9BABF" mask="url(#mask-4)"></path>
                        <path d="M205.590576,0.927098592 C205.814289,0.837367478 206.036364,0.752553137 206.256389,0.668148528 C205.605327,0.910709347 205.037029,1.23480666 204.59411,1.61421767 C203.532907,2.53037644 203.304686,3.71286044 203.844712,4.96376953 C204.535109,6.54942894 206.412087,8.29324456 209.24251,10.0423867 C208.916773,10.3083022 208.589808,10.5807734 208.264072,10.8606197 C205.434059,9.09303969 203.609526,7.26318054 202.977311,5.5836927 C202.484814,4.26190013 202.763431,2.98845583 203.868886,1.98297567 C204.331472,1.5646402 204.917798,1.20407682 205.590576,0.927098592" id="Fill-23" fill="#B9BABF" mask="url(#mask-4)"></path>
                        <path d="M216.262023,14.1101152 C216.005531,14.3764405 215.742894,14.6603841 215.469603,14.9435083 C212.401946,17.6682202 208.222279,18.8744686 204.542484,18.2881434 C202.505711,17.9615877 200.736901,17.0691933 199.481895,15.6228425 C198.009321,13.9216389 197.484456,11.6582843 197.868784,9.4162356 C198.211319,7.45239437 199.281536,5.42504481 200.969629,3.81807939 C201.218335,3.63902689 201.467452,3.46448143 201.721076,3.29608195 C200.026428,4.80184379 198.939821,6.744379 198.584584,8.64102433 C198.176492,10.8363636 198.718976,13.0771831 200.247273,14.761178 C201.557593,16.1989245 203.396056,17.0749296 205.504123,17.3842766 C209.243739,17.933726 213.367682,16.7422279 216.262023,14.1101152" id="Fill-24" fill="#B9BABF" mask="url(#mask-4)"></path>
                        <path d="M218.481905,22.4844046 C218.236067,22.7613828 217.982443,23.0330346 217.720215,23.2989501 C217.330971,23.7062228 216.896656,24.0778489 216.41768,24.4015365 C214.920522,25.4119334 213.152533,25.8794366 211.306694,25.805685 C207.992789,25.670064 204.27243,23.7574392 201.610407,20.348886 C201.866899,20.0960819 202.130766,19.8367222 202.402008,19.5646607 C205.134504,23.0535211 208.907309,24.9944174 212.238832,25.0890653 C214.058448,25.1415109 215.793659,24.6498335 217.237552,23.6021511 C217.696041,23.2719078 218.111099,22.8957746 218.481905,22.4844046" id="Fill-25" fill="#B9BABF" mask="url(#mask-4)"></path>
                        <path d="M208.843227,2.15432522 C208.558464,2.4780128 208.33557,2.8348886 208.170448,3.22577209 C208.331472,2.87217414 208.539616,2.54234059 208.802254,2.24569526 C209.906069,0.997654289 211.93096,0.517449424 213.999283,0.846463508 C213.877183,0.80671959 213.749347,0.762058899 213.62315,0.722314981 C211.703969,0.506386684 209.8737,0.997654289 208.843227,2.15432522" id="Fill-26" fill="#FEFEFE" mask="url(#mask-4)"></path>
                        <path d="M203.845654,4.94881434 C204.535232,6.54266837 206.41221,8.29017157 209.242633,10.0393137 C209.195513,9.95490909 209.15454,9.86722663 209.108241,9.78282202 C206.382709,8.07547247 204.572927,6.38123431 203.902607,4.83204097 C203.527703,3.97980026 203.515411,3.16484507 203.894412,2.44125992 C203.465014,3.19188732 203.458868,4.05027401 203.845654,4.94881434" id="Fill-27" fill="#FEFEFE" mask="url(#mask-4)"></path>
                        <path d="M220.590996,22.2087375 C220.55453,22.2652804 220.489383,22.3595186 220.452507,22.4205685 C222.24672,21.0733726 223.460343,18.9911191 223.886054,16.8461767 C223.454197,18.9173675 222.305311,20.8869449 220.590996,22.2087375" id="Fill-28" fill="#DEDFE7" mask="url(#mask-4)"></path>
                        <path d="M221.858622,12.6898643 C221.006382,9.40996671 218.842182,6.57298848 216.262105,4.89964661 C216.16336,4.86891677 216.060517,4.83818694 215.958494,4.81442254 C218.668046,6.47219462 220.958033,9.40218182 221.837726,12.815242 C222.432246,15.1392369 222.342515,17.4996978 221.735293,19.5647426 C222.371606,17.4693777 222.470351,15.0572907 221.858622,12.6898643" id="Fill-29" fill="#FEFEFE" mask="url(#mask-4)"></path>
                        <path d="M216.262023,14.1101152 C216.215723,14.1101152 216.170653,14.1101152 216.123534,14.1133931 C213.243534,16.6270935 209.218335,17.7624584 205.55493,17.2261204 C203.445634,16.9167734 201.610448,16.0444558 200.299718,14.608758 C198.768553,12.9292702 198.233444,10.698694 198.644405,8.50950064 C198.775519,7.80517286 199.009065,7.09879641 199.333163,6.41208707 C198.977516,7.13854033 198.72758,7.89285531 198.584584,8.64102433 C198.176492,10.8363636 198.718976,13.0771831 200.247273,14.761178 C201.557593,16.1989245 203.396056,17.0749296 205.504123,17.3842766 C209.243739,17.933726 213.367682,16.7422279 216.262023,14.1101152" id="Fill-30" fill="#FEFEFE" mask="url(#mask-4)"></path>
                        <path id="Fill-31" fill="#DEDFE7" mask="url(#mask-4)"></path>
                        <path d="M217.314335,23.4607119 C215.865117,24.505936 214.131544,25.0004814 212.308241,24.949265 C209.06358,24.8484712 205.396896,23.0030423 202.671775,19.6817618 C202.584502,19.644886 202.494361,19.6043227 202.40504,19.5645787 C205.140405,23.0534392 208.916896,24.9910576 212.254566,25.0889834 C214.078689,25.1385608 215.810213,24.6468835 217.260661,23.6020691 C218.7402,22.524886 219.820661,20.8744891 220.388138,18.9417875 C219.819841,20.8105711 218.75536,22.4105711 217.314335,23.4607119" id="Fill-32" fill="#FEFEFE" mask="url(#mask-4)"></path>
                        <path d="M203.902443,4.83216389 C204.573173,6.38135723 206.382955,8.07518566 209.108077,9.78294494 C207.775631,7.25039693 207.402366,4.93336748 208.170612,3.22560819 C208.335324,2.83472471 208.558218,2.47784891 208.843391,2.15416133 C209.873455,0.997900128 211.703723,0.506222791 213.623314,0.722151088 C213.241854,0.604148528 212.865311,0.503354673 212.490407,0.419359795 C209.274018,-0.297669654 206.063365,0.331677337 204.595708,1.59528809 C204.294556,1.85792574 204.05937,2.14473752 203.894658,2.44097311 C203.515657,3.16496799 203.527539,3.97992318 203.902443,4.83216389" id="Fill-33" fill="#F5C8CB" mask="url(#mask-4)"></path>
                        <path d="M223.886054,16.8462177 C224.161393,15.4609168 224.13599,13.9965378 223.790996,12.6022228 C223.03832,9.59438668 220.643032,6.7106991 217.65896,5.39751088 C217.209895,5.20206914 216.74444,5.03735723 216.262187,4.89968758 C218.841854,6.57302945 221.006464,9.41000768 221.858704,12.6899052 C222.470433,15.0573316 222.371688,17.4694187 221.735375,19.5647836 C221.458397,20.5079846 221.070791,21.3999693 220.590996,22.2087785 C222.305311,20.8869859 223.454197,18.9174085 223.886054,16.8462177" id="Fill-34" fill="#DEDFE7" mask="url(#mask-4)"></path>
                        <path d="M200.299718,14.6086761 C201.610448,16.0443739 203.445634,16.9166914 205.55493,17.2264481 C209.218745,17.7623764 213.243534,16.6270115 216.123534,14.1133111 C215.235237,14.1559232 214.274827,14.0911857 213.260743,13.9186889 C210.120563,13.38358 206.890243,11.9851677 204.392113,9.88734443 C201.69977,7.62685787 200.918412,5.20862484 201.721076,3.29640973 C200.689373,4.21215877 199.88589,5.28688348 199.333163,6.41200512 C199.009475,7.09871447 198.775519,7.80509091 198.644405,8.50941869 C198.233444,10.6990218 198.768553,12.9291882 200.299718,14.6086761" id="Fill-35" fill="#DEDFE7" mask="url(#mask-4)"></path>
                        <path d="M212.308364,24.9491831 C214.131667,25.0003995 215.865239,24.505854 217.314458,23.46063 C218.755073,22.4108988 219.819964,20.8104891 220.388261,18.9417055 C221.152819,16.3145096 220.963524,13.0669808 219.568799,10.069388 C219.61305,10.7995288 219.568799,11.5386837 219.420476,12.2626786 C218.975918,14.672717 217.466469,17.0176082 214.929004,18.6520256 C212.129721,20.4466479 208.747391,21.036251 205.569516,20.5138438 C204.559529,20.3487222 203.58273,20.0660077 202.671488,19.6820896 C205.397019,23.0029603 209.063703,24.8483892 212.308364,24.9491831" id="Fill-36" fill="#DEDFE7" mask="url(#mask-4)"></path>
                        <path d="M216.774965,2.22152113 C215.330254,1.58070166 213.9638,1.4270525 212.889895,1.66838412 C211.692661,1.94085531 210.712994,2.75007426 210.18526,4.06654033 C210.159857,4.13373624 210.134044,4.20420999 210.111508,4.27960051 C212.19581,3.1073598 215.084005,3.00656594 217.812405,4.28246863 C220.037654,5.33342894 221.987155,7.26981818 223.176604,9.41639949 C221.990433,6.17583611 219.260394,3.32656594 216.774965,2.22152113" id="Fill-37" fill="#6D6F73" mask="url(#mask-4)"></path>
                    </g>
                    <path d="M204.595954,1.88689373 C204.294392,2.1499411 204.059206,2.43675288 203.894494,2.73298848 L203.894494,2.73298848 C203.515903,3.45657362 203.527375,4.27193854 203.902689,5.12417926 L203.902689,5.12417926 C204.573009,6.67296287 206.382791,8.36720102 209.108323,10.0745506 L209.108323,10.0745506 C207.775467,7.54241229 207.402202,5.22497311 208.170448,3.51721383 L208.170448,3.51721383 C208.33557,3.12633035 208.558464,2.76986428 208.843227,2.4461767 L208.843227,2.4461767 C209.873291,1.28950576 211.70356,0.798238156 213.62315,1.01416645 L213.62315,1.01416645 C213.24169,0.895754161 212.865147,0.795370038 212.490653,0.71137516 L212.490653,0.71137516 C211.563431,0.504870679 210.63662,0.40981306 209.75201,0.40981306 L209.75201,0.40981306 C207.567734,0.40981306 205.639949,0.987943662 204.595954,1.88689373" id="Fill-39"></path>
                    <g id="Group-49" transform="translate(198.309859, 0.291810)">
                        <path d="M25.5761946,16.8462177 C25.8515339,15.4609168 25.8261306,13.9965378 25.481137,12.6022228 C24.7284609,9.59438668 22.3331729,6.7106991 19.3491012,5.39751088 C18.9000359,5.20206914 18.4345813,5.03735723 17.9523278,4.89968758 C20.5319949,6.57302945 22.6966044,9.41000768 23.5488451,12.6899052 C24.1605736,15.0573316 24.0618284,17.4694187 23.425516,19.5647836 C23.1485378,20.5079846 22.7609321,21.3999693 22.281137,22.2087785 C23.995452,20.8869859 25.144338,18.9174085 25.5761946,16.8462177" id="Fill-41" fill="#00A94E"></path>
                        <path d="M1.98985915,14.6086761 C3.30058899,16.0443739 5.13577465,16.9166914 7.24507042,17.2264481 C10.908886,17.7623764 14.9336748,16.6270115 17.8136748,14.1133111 C16.9253777,14.1559232 15.964968,14.0911857 14.9508835,13.9186889 C11.8107042,13.38358 8.58038412,11.9851677 6.08225352,9.88734443 C3.38991037,7.62685787 2.60855314,5.20862484 3.41121639,3.29640973 C2.37951344,4.21215877 1.57603073,5.28688348 1.02330346,6.41200512 C0.699615877,7.09871447 0.465659411,7.80509091 0.334545455,8.50941869 C-0.0764148528,10.6990218 0.458693982,12.9291882 1.98985915,14.6086761" id="Fill-43" fill="#F89C36"></path>
                        <path d="M13.9985045,24.9491831 C15.8218079,25.0003995 17.5553803,24.505854 19.0045992,23.46063 C20.4452138,22.4108988 21.510105,20.8104891 22.078402,18.9417055 C22.8429603,16.3145096 22.6536645,13.0669808 21.2589398,10.069388 C21.3031908,10.7995288 21.2589398,11.5386837 21.1106172,12.2626786 C20.6660589,14.672717 19.1566095,17.0176082 16.6191447,18.6520256 C13.8198617,20.4466479 10.4375314,21.036251 7.25965685,20.5138438 C6.24966965,20.3487222 5.27287068,20.0660077 4.36162868,19.6820896 C7.08716005,23.0029603 10.7538438,24.8483892 13.9985045,24.9491831" id="Fill-45" fill="#186CB2"></path>
                        <path d="M10.7982586,9.78294494 C9.46581306,7.25039693 9.09254802,4.93336748 9.86079385,3.22560819 C10.0255058,2.83472471 10.2483995,2.47784891 10.5331626,2.15416133 C11.5636364,0.997900128 13.3939052,0.506222791 15.3130858,0.722151088 C14.9320359,0.604148528 14.555493,0.503354673 14.180589,0.419769526 C10.9641997,-0.297669654 7.753137,0.331677337 6.28588988,1.59528809 C5.98473752,1.85792574 5.74955186,2.14473752 5.58443022,2.44097311 C5.20583867,3.16496799 5.21772087,3.97992318 5.59262484,4.83216389 C6.26335467,6.38135723 8.073137,8.07559539 10.7982586,9.78294494" id="Fill-47" fill="#EB4331"></path>
                    </g>
                </g>
            </g>
        </g>
    </g>
</svg>